# xmcd CD database file
#
# Track frame offsets:
#	150
#	31411
#	57100
#	95244
#	130508
#	157300
#	185977
#	219403
#	235655
#	257248
#	295384
#	328214
#
# Disc length: 4757 seconds
#
# Revision: 2
# Processed by: cddbd v1.5.2PL0 Copyright (c) Steve Scherf et al.
# Submitted via: CDex 1.70beta2
#
DISCID=bc12930c
DTITLE=Saint Germain - Tourist
DYEAR=2000
DGENRE=Blues
TTITLE0=Rose Rouge
TTITLE1=Montego Bay Spleen
TTITLE2=So Flute
TTITLE3=Land of...
TTITLE4=Latin Note
TTITLE5=Sure Thing
TTITLE6=Pont Des Arts
TTITLE7=La Goutte d'Or
TTITLE8=What You Think About...
TTITLE9=Rose Rouge (Blaze Early Shelter Mix)
TTITLE10=Sure Thing (Todd Edwards Deepline Remix)
TTITLE11=Rose Rouge (Spiller Rouge Mix)
EXTD=YEAR: 2000
EXTT0=
EXTT1=
EXTT2=
EXTT3=
EXTT4=
EXTT5=
EXTT6=
EXTT7=
EXTT8=
EXTT9=
EXTT10=
EXTT11=
PLAYORDER=
